<svg xmlns="http://www.w3.org/2000/svg" width="560" height="360" viewBox="0 0 560 360">
  <defs>
    <!-- Runtime-standard 48x48 token geometry scaled 2x for guide readability. -->
    <circle id="std-circle" cx="0" cy="0" r="48" />
    <polygon id="std-triangle" points="0,-41.569 -48,41.569 48,41.569" />
    <polygon id="std-hexagon" points="-48,0 -24,-41.569 24,-41.569 48,0 24,41.569 -24,41.569" />

    <clipPath id="clip-left-circle" clipPathUnits="userSpaceOnUse">
      <circle cx="156" cy="132" r="48" />
    </clipPath>
    <clipPath id="clip-left-triangle" clipPathUnits="userSpaceOnUse">
      <polygon points="212,94.431 164,177.569 260,177.569" />
    </clipPath>
    <clipPath id="clip-right-triangle" clipPathUnits="userSpaceOnUse">
      <polygon points="310,94.431 262,177.569 358,177.569" />
    </clipPath>
    <clipPath id="clip-right-hexagon" clipPathUnits="userSpaceOnUse">
      <polygon points="316,140 340,98.431 388,98.431 412,140 388,181.569 340,181.569" />
    </clipPath>
    <clipPath id="clip-lower-hexagon" clipPathUnits="userSpaceOnUse">
      <polygon points="348,204 372,162.431 420,162.431 444,204 420,245.569 372,245.569" />
    </clipPath>
  </defs>

  <rect width="560" height="360" fill="#101820" />
  <rect x="72" y="42" width="416" height="276" rx="16" fill="#1b2227" stroke="#8a7046" stroke-width="6" />
  <rect x="86" y="56" width="388" height="248" rx="10" fill="#263036" stroke="#322a21" stroke-width="2" />

  <g id="standard-piece-instances" fill="#b7bab8" fill-opacity="0.45" stroke="#e2d8bd" stroke-opacity="0.8" stroke-width="4" stroke-linejoin="round">
    <use href="#std-circle" transform="translate(156 132)" />
    <use href="#std-triangle" transform="translate(212 136) rotate(0)" />
    <use href="#std-triangle" transform="translate(310 136) rotate(0)" />
    <use href="#std-hexagon" transform="translate(364 140) rotate(0)" />
    <use href="#std-hexagon" transform="translate(396 204) rotate(0)" />
    <use href="#std-circle" transform="translate(336 238)" />
  </g>

  <g id="boolean-overlap-colors" fill-opacity="1" stroke="#f2ead7" stroke-opacity="0.68" stroke-width="2" stroke-linejoin="round">
    <polygon points="212,94.431 164,177.569 260,177.569" fill="#8b62b5" clip-path="url(#clip-left-circle)" />
    <polygon points="316,140 340,98.431 388,98.431 412,140 388,181.569 340,181.569" fill="#5a9a67" clip-path="url(#clip-right-triangle)" />
    <polygon points="348,204 372,162.431 420,162.431 444,204 420,245.569 372,245.569" fill="#bf7c34" clip-path="url(#clip-right-hexagon)" />
    <circle cx="336" cy="238" r="48" fill="#8b62b5" clip-path="url(#clip-lower-hexagon)" />
  </g>

  <g id="piece-outline-restatement" fill="none" stroke="#1a1510" stroke-opacity="0.9" stroke-width="1.5" stroke-linejoin="round">
    <use href="#std-circle" transform="translate(156 132)" />
    <use href="#std-triangle" transform="translate(212 136) rotate(0)" />
    <use href="#std-triangle" transform="translate(310 136) rotate(0)" />
    <use href="#std-hexagon" transform="translate(364 140) rotate(0)" />
    <use href="#std-hexagon" transform="translate(396 204) rotate(0)" />
    <use href="#std-circle" transform="translate(336 238)" />
  </g>
</svg>
